 
 <svg xmlns="http://www.w3.org/2000/svg" width="14" height="14" viewBox="0 0 14 14" fill="none">
        <path d="M14.0008 4.564V1.386C14.0008 0.399 13.5528 0 12.4398 0H9.61178C8.49878 0 8.05078 0.399 8.05078 1.386V4.557C8.05078 5.551 8.49878 5.943 9.61178 5.943H12.4398C13.5528 5.95 14.0008 5.551 14.0008 4.564Z" fill="#5956E9"></path>
                                 <path opacity="0.4" d="M14.0008 12.4388V9.6108C14.0008 8.4978 13.5528 8.0498 12.4398 8.0498H9.61178C8.49878 8.0498 8.05078 8.4978 8.05078 9.6108V12.4388C8.05078 13.5518 8.49878 13.9998 9.61178 13.9998H12.4398C13.5528 13.9998 14.0008 13.5518 14.0008 12.4388Z" fill="#5956E9"></path>
                                 <path opacity="0.4" d="M5.95 4.564V1.386C5.95 0.399 5.502 0 4.389 0H1.561C0.448 0 0 0.399 0 1.386V4.557C0 5.551 0.448 5.943 1.561 5.943H4.389C5.502 5.95 5.95 5.551 5.95 4.564Z" fill="#5956E9"></path>
                                 <path d="M5.95 12.4388V9.6108C5.95 8.4978 5.502 8.0498 4.389 8.0498H1.561C0.448 8.0498 0 8.4978 0 9.6108V12.4388C0 13.5518 0.448 13.9998 1.561 13.9998H4.389C5.502 13.9998 5.95 13.5518 5.95 12.4388Z" fill="#5956E9"></path>

   </svg>